<svg xmlns="http://www.w3.org/2000/svg" viewBox="0 0 720 280" font-family="system-ui, sans-serif" font-size="13">
  <title>FocusFlow System Architecture</title>
  <defs>
    <marker id="a" markerWidth="8" markerHeight="8" refX="7" refY="4" orient="auto">
      <path d="M0,0 L8,4 L0,8 Z" fill="#333"/>
    </marker>
  </defs>
  <text x="360" y="28" text-anchor="middle" font-size="15" font-weight="700" fill="#1a237e">FocusFlow  -  High-Level Architecture</text>
  <rect x="60" y="60" width="160" height="80" rx="10" fill="#fff3e0" stroke="#ef6c00" stroke-width="2"/>
  <text x="140" y="100" text-anchor="middle" font-weight="600" fill="#e65100">React SPA</text>
  <text x="140" y="122" text-anchor="middle" font-size="11" fill="#5d4037">Presentation</text>
  <rect x="280" y="60" width="180" height="80" rx="10" fill="#e8f5e9" stroke="#2e7d32" stroke-width="2"/>
  <text x="370" y="100" text-anchor="middle" font-weight="600" fill="#1b5e20">Spring Boot</text>
  <text x="370" y="122" text-anchor="middle" font-size="11" fill="#33691e">REST API + OAuth</text>
  <rect x="520" y="55" width="160" height="90" rx="10" fill="#fce4ec" stroke="#ad1457" stroke-width="2"/>
  <text x="600" y="95" text-anchor="middle" font-weight="600" fill="#880e4f">Relational DB</text>
  <text x="600" y="115" text-anchor="middle" font-size="11" fill="#6a1b9a">MySQL / PostgreSQL</text>
  <text x="600" y="132" text-anchor="middle" font-size="10" fill="#666">Users, Tasks</text>
  <path d="M220 100 L280 100" stroke="#333" stroke-width="2" fill="none" marker-end="url(#a)"/>
  <text x="250" y="92" text-anchor="middle" font-size="10" fill="#444">REST / JSON</text>
  <path d="M460 100 L520 100" stroke="#333" stroke-width="2" fill="none" marker-end="url(#a)"/>
  <text x="490" y="92" text-anchor="middle" font-size="10" fill="#444">JPA / JDBC</text>
  <rect x="280" y="190" width="180" height="70" rx="10" fill="#ede7f6" stroke="#5e35b1" stroke-width="2"/>
  <text x="370" y="222" text-anchor="middle" font-weight="600" fill="#4527a0">Google Calendar API</text>
  <text x="370" y="242" text-anchor="middle" font-size="11" fill="#5e35b1">Third-party</text>
  <path d="M370 140 L370 190" stroke="#333" stroke-width="2" fill="none" marker-end="url(#a)"/>
  <text x="385" y="168" font-size="10" fill="#444">HTTPS + OAuth2</text>
</svg>
